<svg width="54" height="54" viewBox="0 0 54 54" fill="none" xmlns="http://www.w3.org/2000/svg">
<g filter="url(#filter0_dd_59_242)">
<mask id="mask0_59_242" style="mask-type:alpha" maskUnits="userSpaceOnUse" x="14" y="14" width="26" height="26">
<circle cx="27" cy="27" r="13" fill="#D9D9D9"/>
</mask>
<g mask="url(#mask0_59_242)">
<path d="M46.4445 14H7.43689V40.1141H46.4445V14Z" fill="white"/>
<path d="M46.4445 22.6615V16.7237L37.4518 22.6615H46.4445Z" fill="#00237C"/>
<path d="M7.43689 31.4526V37.3904L16.4299 31.4526H7.43689Z" fill="#00237C"/>
<path d="M7.43689 16.7237V22.6615H16.4296L7.43689 16.7237Z" fill="#00237C"/>
<path d="M42.001 14H30.2502V21.7591L42.001 14Z" fill="#00237C"/>
<path d="M23.6298 14H11.8816L23.6298 21.7578V14Z" fill="#00237C"/>
<path d="M11.8816 40.1141H23.6298V32.3563L11.8816 40.1141Z" fill="#00237C"/>
<path d="M46.4445 37.3904V31.4526H37.4518L46.4445 37.3904Z" fill="#00237C"/>
<path d="M30.2502 40.1141H42.001L30.2502 32.3553V40.1141Z" fill="#00237C"/>
<path d="M20.21 22.6615L7.43689 14.2274V16.0994L17.3749 22.6615H20.21Z" fill="#CF142B"/>
<path d="M33.6707 22.6615H36.5069L46.4445 16.0994V14.2274L33.6707 22.6615Z" fill="#CF142B"/>
<path d="M17.3752 31.4526L7.43689 38.0147V39.8867L20.2102 31.4526H17.3752Z" fill="#CF142B"/>
<path d="M33.6707 31.4526L46.4445 39.8867V38.0147L36.5067 31.4526H33.6707Z" fill="#CF142B"/>
<path d="M46.4445 24.4194H28.8516V14H24.9649V24.4194H7.43689V29.499H24.9649V40.1141H28.8516V29.499H46.4445V24.4194Z" fill="#CF142B"/>
</g>
</g>
<defs>
<filter id="filter0_dd_59_242" x="0" y="0" width="54" height="54" filterUnits="userSpaceOnUse" color-interpolation-filters="sRGB">
<feFlood flood-opacity="0" result="BackgroundImageFix"/>
<feColorMatrix in="SourceAlpha" type="matrix" values="0 0 0 0 0 0 0 0 0 0 0 0 0 0 0 0 0 0 127 0" result="hardAlpha"/>
<feOffset dx="4" dy="4"/>
<feGaussianBlur stdDeviation="5"/>
<feComposite in2="hardAlpha" operator="out"/>
<feColorMatrix type="matrix" values="0 0 0 0 0.803922 0 0 0 0 0.705882 0 0 0 0 0.858824 0 0 0 1 0"/>
<feBlend mode="multiply" in2="BackgroundImageFix" result="effect1_dropShadow_59_242"/>
<feColorMatrix in="SourceAlpha" type="matrix" values="0 0 0 0 0 0 0 0 0 0 0 0 0 0 0 0 0 0 127 0" result="hardAlpha"/>
<feOffset dx="-4" dy="-4"/>
<feGaussianBlur stdDeviation="5"/>
<feComposite in2="hardAlpha" operator="out"/>
<feColorMatrix type="matrix" values="0 0 0 0 1 0 0 0 0 1 0 0 0 0 1 0 0 0 1 0"/>
<feBlend mode="normal" in2="effect1_dropShadow_59_242" result="effect2_dropShadow_59_242"/>
<feBlend mode="normal" in="SourceGraphic" in2="effect2_dropShadow_59_242" result="shape"/>
</filter>
</defs>
</svg>
