<svg width="26" height="26" viewBox="0 0 26 26" fill="none" xmlns="http://www.w3.org/2000/svg">
<mask id="mask0_85_511" style="mask-type:alpha" maskUnits="userSpaceOnUse" x="0" y="0" width="26" height="26">
<circle cx="13" cy="13" r="13" fill="#D9D9D9"/>
</mask>
<g mask="url(#mask0_85_511)">
<path d="M32.4445 0H-6.56311V26.1141H32.4445V0Z" fill="white"/>
<path d="M32.4445 8.66148V2.72363L23.4518 8.66148H32.4445Z" fill="#00237C"/>
<path d="M-6.56311 17.4525V23.3904L2.42986 17.4525H-6.56311Z" fill="#00237C"/>
<path d="M-6.56311 2.72363V8.66148H2.42961L-6.56311 2.72363Z" fill="#00237C"/>
<path d="M28.001 0H16.2502V7.75911L28.001 0Z" fill="#00237C"/>
<path d="M9.62981 0H-2.11841L9.62981 7.75784V0Z" fill="#00237C"/>
<path d="M-2.11841 26.114H9.62981V18.3562L-2.11841 26.114Z" fill="#00237C"/>
<path d="M32.4445 23.3904V17.4525H23.4518L32.4445 23.3904Z" fill="#00237C"/>
<path d="M16.2502 26.1141H28.001L16.2502 18.3552V26.1141Z" fill="#00237C"/>
<path d="M6.20996 8.66151L-6.56311 0.227417V2.09942L3.37495 8.66151H6.20996Z" fill="#CF142B"/>
<path d="M19.6707 8.66151H22.5069L32.4445 2.09942V0.227417L19.6707 8.66151Z" fill="#CF142B"/>
<path d="M3.3752 17.4525L-6.56311 24.0146V25.8866L6.21021 17.4525H3.3752Z" fill="#CF142B"/>
<path d="M19.6707 17.4525L32.4445 25.8866V24.0146L22.5067 17.4525H19.6707Z" fill="#CF142B"/>
<path d="M32.4445 10.4194H14.8516V0H10.9649V10.4194H-6.56311V15.499H10.9649V26.1141H14.8516V15.499H32.4445V10.4194Z" fill="#CF142B"/>
</g>
</svg>
