<svg width="54" height="54" viewBox="0 0 54 54" fill="none" xmlns="http://www.w3.org/2000/svg">
<g filter="url(#filter0_dd_59_314)">
<circle cx="27" cy="27" r="13" fill="#BDE0FE"/>
<path fill-rule="evenodd" clip-rule="evenodd" d="M14 27C14 23.5522 15.3696 20.2456 17.8076 17.8076C20.2456 15.3696 23.5522 14 27 14C30.4478 14 33.7544 15.3696 36.1924 17.8076C38.6304 20.2456 40 23.5522 40 27C40 30.4478 38.6304 33.7544 36.1924 36.1924C33.7544 38.6304 30.4478 40 27 40C23.5522 40 20.2456 38.6304 17.8076 36.1924C15.3696 33.7544 14 30.4478 14 27ZM27 15.8647C24.8417 15.8648 22.7299 16.4921 20.9215 17.6704C19.1132 18.8486 17.6862 20.527 16.8143 22.5013C15.9423 24.4757 15.6629 26.6609 16.0101 28.7911C16.3573 30.9213 17.316 32.9048 18.7697 34.5001C19.6523 33.1177 20.869 31.9801 22.3076 31.1924C23.7461 30.4047 25.3599 29.9923 27 29.9934C28.6401 29.9922 30.254 30.4045 31.6926 31.1922C33.1311 31.9799 34.3478 33.1176 35.2303 34.5001C36.684 32.9048 37.6427 30.9213 37.9899 28.7911C38.3371 26.6609 38.0577 24.4757 37.1857 22.5013C36.3137 20.527 34.8868 18.8486 33.0785 17.6704C31.2701 16.4921 29.1583 15.8648 27 15.8647ZM33.8347 35.7916C33.1401 34.5945 32.143 33.601 30.9435 32.9106C29.744 32.2202 28.384 31.8573 27 31.8581C25.616 31.8573 24.256 32.2202 23.0565 32.9106C21.857 33.601 20.8599 34.5945 20.1653 35.7916C22.1179 37.3142 24.524 38.1392 27 38.1353C29.5753 38.1353 31.9464 37.2599 33.8347 35.7916ZM22.3873 25.047C22.3873 23.8236 22.8733 22.6503 23.7383 21.7853C24.6034 20.9202 25.7766 20.4342 27 20.4342C28.2234 20.4342 29.3966 20.9202 30.2617 21.7853C31.1267 22.6503 31.6127 23.8236 31.6127 25.047C31.6127 26.2703 31.1267 27.4436 30.2617 28.3086C29.3966 29.1737 28.2234 29.6597 27 29.6597C25.7766 29.6597 24.6034 29.1737 23.7383 28.3086C22.8733 27.4436 22.3873 26.2703 22.3873 25.047ZM27 22.299C26.6391 22.299 26.2818 22.37 25.9484 22.5081C25.615 22.6462 25.312 22.8487 25.0569 23.1038C24.8017 23.359 24.5993 23.6619 24.4612 23.9953C24.3231 24.3287 24.252 24.6861 24.252 25.047C24.252 25.4078 24.3231 25.7652 24.4612 26.0986C24.5993 26.432 24.8017 26.7349 25.0569 26.9901C25.312 27.2453 25.615 27.4477 25.9484 27.5858C26.2818 27.7239 26.6391 27.795 27 27.795C27.7288 27.795 28.4278 27.5054 28.9431 26.9901C29.4585 26.4747 29.748 25.7758 29.748 25.047C29.748 24.3181 29.4585 23.6192 28.9431 23.1038C28.4278 22.5885 27.7288 22.299 27 22.299Z" fill="#0C0A3E"/>
</g>
<defs>
<filter id="filter0_dd_59_314" x="0" y="0" width="54" height="54" filterUnits="userSpaceOnUse" color-interpolation-filters="sRGB">
<feFlood flood-opacity="0" result="BackgroundImageFix"/>
<feColorMatrix in="SourceAlpha" type="matrix" values="0 0 0 0 0 0 0 0 0 0 0 0 0 0 0 0 0 0 127 0" result="hardAlpha"/>
<feOffset dx="4" dy="4"/>
<feGaussianBlur stdDeviation="5"/>
<feComposite in2="hardAlpha" operator="out"/>
<feColorMatrix type="matrix" values="0 0 0 0 0.803922 0 0 0 0 0.705882 0 0 0 0 0.858824 0 0 0 1 0"/>
<feBlend mode="multiply" in2="BackgroundImageFix" result="effect1_dropShadow_59_314"/>
<feColorMatrix in="SourceAlpha" type="matrix" values="0 0 0 0 0 0 0 0 0 0 0 0 0 0 0 0 0 0 127 0" result="hardAlpha"/>
<feOffset dx="-4" dy="-4"/>
<feGaussianBlur stdDeviation="5"/>
<feComposite in2="hardAlpha" operator="out"/>
<feColorMatrix type="matrix" values="0 0 0 0 1 0 0 0 0 1 0 0 0 0 1 0 0 0 1 0"/>
<feBlend mode="normal" in2="effect1_dropShadow_59_314" result="effect2_dropShadow_59_314"/>
<feBlend mode="normal" in="SourceGraphic" in2="effect2_dropShadow_59_314" result="shape"/>
</filter>
</defs>
</svg>
